<?xml version="1.0" encoding="UTF-8"?>
<svg width="512" height="512" version="1.1" viewBox="0 0 135.47 135.47" xmlns="http://www.w3.org/2000/svg">
 <g transform="translate(0 -161.53)">
  <circle cx="67.733" cy="229.27" r="67.733" fill="#fff"/>
  <g transform="matrix(.91397 0 0 .91397 5.8287 19.725)" fill="#1c4220">
   <path d="m67.733 161.53a67.733 67.733 0 0 0-67.733 67.733 67.733 67.733 0 0 0 67.733 67.733 67.733 67.733 0 0 0 67.733-67.733 67.733 67.733 0 0 0-67.733-67.733zm0 11.377a56.356 56.356 0 0 1 56.356 56.356 56.356 56.356 0 0 1-56.356 56.356 56.356 56.356 0 0 1-56.356-56.356 56.356 56.356 0 0 1 56.356-56.356z"/>
   <circle cx="67.733" cy="229.27" r="22.639"/>
   <path d="m67.733 179.01v28.299m0 43.916v28.299m50.3-50.257h-28.299m-43.916 0h-28.299" fill="none" stroke="#1c4220" stroke-width="11.377"/>
  </g>
 </g>
</svg>